<svg width="18" height="21" viewBox="0 0 18 21" fill="none" xmlns="http://www.w3.org/2000/svg">
<path d="M17.0403 16.7119C16.9772 16.6719 16.5019 16.3464 16.0259 15.3618C15.1519 13.5538 14.9685 11.0068 14.9685 9.18853C14.9685 9.18061 14.9683 9.17278 14.968 9.1649C14.9585 6.76184 13.4863 4.6903 11.3797 3.76085V2.33937C11.3797 1.04943 10.3078 0 8.9903 0H8.79228C7.47477 0 6.4029 1.04943 6.4029 2.33937V3.76076C4.2892 4.69321 2.81412 6.77533 2.81412 9.18853C2.81412 11.0068 2.63066 13.5537 1.75664 15.3618C1.28075 16.3464 0.805453 16.6718 0.742258 16.7119C0.476137 16.8323 0.344922 17.1104 0.406145 17.3922C0.467954 17.6768 0.740118 17.8731 1.03733 17.8731H5.6509C5.67666 19.6015 7.1199 21 8.89131 21C10.6627 21 12.106 19.6015 12.1317 17.8731H16.7453C17.0425 17.8731 17.3147 17.6768 17.3765 17.3922C17.4376 17.1104 17.3064 16.8323 17.0403 16.7119ZM7.66179 2.33937C7.66179 1.72901 8.16894 1.23248 8.79232 1.23248H8.99034C9.61372 1.23248 10.1209 1.72901 10.1209 2.33937V3.36135C9.72358 3.28109 9.31231 3.23884 8.89114 3.23884C8.4701 3.23884 8.05896 3.28104 7.66183 3.36123L7.66179 2.33937ZM8.89131 19.7675C7.81403 19.7675 6.93531 18.9219 6.90975 17.8731H10.8728C10.8473 18.9219 9.9686 19.7675 8.89131 19.7675ZM11.4258 16.6405H2.4718C2.58069 16.4747 2.69151 16.2869 2.80166 16.0746C3.64526 14.4486 4.07301 12.1318 4.07301 9.18853C4.07301 6.58744 6.23442 4.47132 8.8911 4.47132C11.5478 4.47132 13.7092 6.58744 13.7092 9.19058C13.7092 9.19816 13.7093 9.20571 13.7096 9.21326C13.712 12.1447 14.1397 14.4532 14.981 16.0746C15.0911 16.2869 15.202 16.4747 15.3108 16.6405H11.4258Z" fill="black"/>
</svg>
