<svg width="230" height="93" viewBox="0 0 230 93" fill="none" xmlns="http://www.w3.org/2000/svg">
<path d="M13.0566 31.8428C14.2415 31.8428 15.4036 31.9795 16.543 32.2529C17.7051 32.5264 18.8102 32.9365 19.8584 33.4834C20.9066 34.0075 21.8294 34.7139 22.627 35.6025C23.4473 36.4912 23.8916 37.5508 23.96 38.7812V40.2168V51.1201C23.8232 52.4873 23.0713 53.2279 21.7041 53.3418C21.0661 53.3418 20.5078 53.1367 20.0293 52.7266C19.5736 52.2936 19.3457 51.7581 19.3457 51.1201V39.8408C19.3001 39.1344 19.0267 38.5534 18.5254 38.0977C18.0469 37.6191 17.5 37.2432 16.8848 36.9697C16.2923 36.6963 15.6657 36.4912 15.0049 36.3545C14.3669 36.2178 13.7174 36.1494 13.0566 36.1494C12.3958 36.1494 11.735 36.2178 11.0742 36.3545C10.4362 36.4912 9.80957 36.6963 9.19434 36.9697C8.60189 37.2432 8.05501 37.6191 7.55371 38.0977C7.0752 38.5534 6.81315 39.1344 6.76758 39.8408V51.1201C6.65365 52.4873 5.91309 53.2279 4.5459 53.3418C3.90788 53.3418 3.34961 53.1367 2.87109 52.7266C2.41536 52.2936 2.1875 51.7581 2.1875 51.1201V40.2168V38.7812C2.25586 37.5508 2.6888 36.4912 3.48633 35.6025C4.28385 34.7139 5.20671 34.0075 6.25488 33.4834C7.30306 32.9365 8.39681 32.5264 9.53613 32.2529C10.6982 31.9795 11.8717 31.8428 13.0566 31.8428ZM43.5449 53.7178C42.36 53.7178 41.1865 53.5811 40.0244 53.3076C38.8851 53.0342 37.7913 52.6354 36.7432 52.1113C35.695 51.5645 34.7721 50.8467 33.9746 49.958C33.1771 49.0693 32.7441 48.0098 32.6758 46.7793V45.3438V34.4404C32.6758 33.8024 32.9036 33.2783 33.3594 32.8682C33.8379 32.4352 34.3962 32.2188 35.0342 32.2188C36.4014 32.3327 37.1419 33.0732 37.2559 34.4404V45.7197C37.3014 46.4261 37.5635 47.0186 38.042 47.4971C38.5433 47.9528 39.0902 48.3174 39.6826 48.5908C40.2979 48.8643 40.9245 49.0693 41.5625 49.2061C42.2233 49.3428 42.8841 49.4111 43.5449 49.4111C44.2057 49.4111 44.8551 49.3428 45.4932 49.2061C46.154 49.0693 46.7806 48.8643 47.373 48.5908C47.9883 48.3174 48.5352 47.9528 49.0137 47.4971C49.515 47.0186 49.7884 46.4261 49.834 45.7197V34.4404C49.834 33.8024 50.0618 33.2783 50.5176 32.8682C50.9961 32.4352 51.5544 32.2188 52.1924 32.2188C53.5596 32.3327 54.3115 33.0732 54.4482 34.4404V45.3438V46.7793C54.3799 48.0098 53.9355 49.0693 53.1152 49.958C52.3177 50.8467 51.3949 51.5645 50.3467 52.1113C49.2985 52.6354 48.1934 53.0342 47.0312 53.3076C45.8919 53.5811 44.7298 53.7178 43.5449 53.7178ZM71.0596 47.6338C71.0596 46.9958 71.276 46.4603 71.709 46.0273C72.1647 45.5716 72.7116 45.3438 73.3496 45.3438H78.5791L77.6904 42.8145C77.3258 41.8802 76.9613 41.0029 76.5967 40.1826C76.2549 39.3395 75.8561 38.5762 75.4004 37.8926C74.9902 37.209 74.5231 36.8444 73.999 36.7988C73.4521 36.8444 72.9622 37.209 72.5293 37.8926C72.0964 38.5762 71.6976 39.3395 71.333 40.1826C70.9912 41.0029 70.638 41.8802 70.2734 42.8145L67.0264 51.7012C66.7985 52.1797 66.5023 52.5785 66.1377 52.8975C65.7959 53.1937 65.2718 53.3418 64.5654 53.3418C63.9046 53.3418 63.3577 53.1139 62.9248 52.6582C62.5146 52.2025 62.3324 51.6556 62.3779 51.0176C62.4007 50.7214 62.4691 50.4479 62.583 50.1973L66.3428 40.4902C67.391 37.9382 68.4391 35.876 69.4873 34.3037C70.5127 32.7542 72.0166 31.9681 73.999 31.9453C75.9587 31.9681 77.4512 32.7542 78.4766 34.3037C79.5247 35.8304 80.5729 37.8926 81.6211 40.4902L85.3809 50.1973C85.4948 50.4479 85.5632 50.7214 85.5859 51.0176C85.6315 51.6556 85.4378 52.2025 85.0049 52.6582C84.5947 53.1139 84.0592 53.3418 83.3984 53.3418C82.6465 53.3418 82.0882 53.1937 81.7236 52.8975C81.3818 52.5785 81.097 52.1797 80.8691 51.7012L80.2197 49.9238H73.3496C72.7116 49.9238 72.1761 49.696 71.7432 49.2402C71.2874 48.8073 71.0596 48.2718 71.0596 47.6338Z" fill="#1D1D1D"/>
<path d="M0.473 73.964C0.473 73.348 0.597667 72.809 0.847 72.347C1.09633 71.8777 1.43733 71.5147 1.87 71.258C2.31 71.0013 2.79767 70.873 3.333 70.873C3.861 70.873 4.31933 70.9867 4.708 71.214C5.09667 71.4413 5.38633 71.7273 5.577 72.072V70.972H6.589V77H5.577V75.878C5.379 76.23 5.082 76.5233 4.686 76.758C4.29733 76.9853 3.84267 77.099 3.322 77.099C2.78667 77.099 2.30267 76.967 1.87 76.703C1.43733 76.439 1.09633 76.0687 0.847 75.592C0.597667 75.1153 0.473 74.5727 0.473 73.964ZM5.577 73.975C5.577 73.5203 5.48533 73.1243 5.302 72.787C5.11867 72.4497 4.86933 72.193 4.554 72.017C4.246 71.8337 3.905 71.742 3.531 71.742C3.157 71.742 2.816 71.83 2.508 72.006C2.2 72.182 1.95433 72.4387 1.771 72.776C1.58767 73.1133 1.496 73.5093 1.496 73.964C1.496 74.426 1.58767 74.8293 1.771 75.174C1.95433 75.5113 2.2 75.7717 2.508 75.955C2.816 76.131 3.157 76.219 3.531 76.219C3.905 76.219 4.246 76.131 4.554 75.955C4.86933 75.7717 5.11867 75.5113 5.302 75.174C5.48533 74.8293 5.577 74.4297 5.577 73.975ZM12.5926 70.862C13.3259 70.862 13.9199 71.0857 14.3746 71.533C14.8293 71.973 15.0566 72.611 15.0566 73.447V77H14.0666V73.59C14.0666 72.9887 13.9163 72.5303 13.6156 72.215C13.3149 71.8923 12.9043 71.731 12.3836 71.731C11.8556 71.731 11.4339 71.896 11.1186 72.226C10.8106 72.556 10.6566 73.0363 10.6566 73.667V77H9.65559V70.972H10.6566V71.83C10.8546 71.522 11.1223 71.2837 11.4596 71.115C11.8043 70.9463 12.1819 70.862 12.5926 70.862ZM22.0003 73.964C22.0003 73.348 22.125 72.809 22.3743 72.347C22.6237 71.8777 22.9647 71.5147 23.3973 71.258C23.8373 71.0013 24.325 70.873 24.8603 70.873C25.3883 70.873 25.8467 70.9867 26.2353 71.214C26.624 71.4413 26.9137 71.7273 27.1043 72.072V70.972H28.1163V77H27.1043V75.878C26.9063 76.23 26.6093 76.5233 26.2133 76.758C25.8247 76.9853 25.37 77.099 24.8493 77.099C24.314 77.099 23.83 76.967 23.3973 76.703C22.9647 76.439 22.6237 76.0687 22.3743 75.592C22.125 75.1153 22.0003 74.5727 22.0003 73.964ZM27.1043 73.975C27.1043 73.5203 27.0127 73.1243 26.8293 72.787C26.646 72.4497 26.3967 72.193 26.0813 72.017C25.7733 71.8337 25.4323 71.742 25.0583 71.742C24.6843 71.742 24.3433 71.83 24.0353 72.006C23.7273 72.182 23.4817 72.4387 23.2983 72.776C23.115 73.1133 23.0233 73.5093 23.0233 73.964C23.0233 74.426 23.115 74.8293 23.2983 75.174C23.4817 75.5113 23.7273 75.7717 24.0353 75.955C24.3433 76.131 24.6843 76.219 25.0583 76.219C25.4323 76.219 25.7733 76.131 26.0813 75.955C26.3967 75.7717 26.646 75.5113 26.8293 75.174C27.0127 74.8293 27.1043 74.4297 27.1043 73.975ZM32.1839 72.083C32.3819 71.7383 32.6753 71.4523 33.0639 71.225C33.4599 70.9903 33.9183 70.873 34.4389 70.873C34.9743 70.873 35.4583 71.0013 35.8909 71.258C36.3309 71.5147 36.6756 71.8777 36.9249 72.347C37.1743 72.809 37.2989 73.348 37.2989 73.964C37.2989 74.5727 37.1743 75.1153 36.9249 75.592C36.6756 76.0687 36.3309 76.439 35.8909 76.703C35.4583 76.967 34.9743 77.099 34.4389 77.099C33.9256 77.099 33.4709 76.9853 33.0749 76.758C32.6863 76.5233 32.3893 76.2337 32.1839 75.889V79.86H31.1829V70.972H32.1839V72.083ZM36.2759 73.964C36.2759 73.5093 36.1843 73.1133 36.0009 72.776C35.8176 72.4387 35.5683 72.182 35.2529 72.006C34.9449 71.83 34.6039 71.742 34.2299 71.742C33.8633 71.742 33.5223 71.8337 33.2069 72.017C32.8989 72.193 32.6496 72.4533 32.4589 72.798C32.2756 73.1353 32.1839 73.5277 32.1839 73.975C32.1839 74.4297 32.2756 74.8293 32.4589 75.174C32.6496 75.5113 32.8989 75.7717 33.2069 75.955C33.5223 76.131 33.8633 76.219 34.2299 76.219C34.6039 76.219 34.9449 76.131 35.2529 75.955C35.5683 75.7717 35.8176 75.5113 36.0009 75.174C36.1843 74.8293 36.2759 74.426 36.2759 73.964ZM40.9925 72.083C41.1905 71.7383 41.4839 71.4523 41.8725 71.225C42.2685 70.9903 42.7269 70.873 43.2475 70.873C43.7829 70.873 44.2669 71.0013 44.6995 71.258C45.1395 71.5147 45.4842 71.8777 45.7335 72.347C45.9829 72.809 46.1075 73.348 46.1075 73.964C46.1075 74.5727 45.9829 75.1153 45.7335 75.592C45.4842 76.0687 45.1395 76.439 44.6995 76.703C44.2669 76.967 43.7829 77.099 43.2475 77.099C42.7342 77.099 42.2795 76.9853 41.8835 76.758C41.4949 76.5233 41.1979 76.2337 40.9925 75.889V79.86H39.9915V70.972H40.9925V72.083ZM45.0845 73.964C45.0845 73.5093 44.9929 73.1133 44.8095 72.776C44.6262 72.4387 44.3769 72.182 44.0615 72.006C43.7535 71.83 43.4125 71.742 43.0385 71.742C42.6719 71.742 42.3309 71.8337 42.0155 72.017C41.7075 72.193 41.4582 72.4533 41.2675 72.798C41.0842 73.1353 40.9925 73.5277 40.9925 73.975C40.9925 74.4297 41.0842 74.8293 41.2675 75.174C41.4582 75.5113 41.7075 75.7717 42.0155 75.955C42.3309 76.131 42.6719 76.219 43.0385 76.219C43.4125 76.219 43.7535 76.131 44.0615 75.955C44.3769 75.7717 44.6262 75.5113 44.8095 75.174C44.9929 74.8293 45.0845 74.426 45.0845 73.964ZM55.5607 71.797H54.2957V77H53.2947V71.797H52.5137V70.972H53.2947V70.543C53.2947 69.8683 53.4671 69.377 53.8117 69.069C54.1637 68.7537 54.7247 68.596 55.4947 68.596V69.432C55.0547 69.432 54.7431 69.52 54.5597 69.696C54.3837 69.8647 54.2957 70.147 54.2957 70.543V70.972H55.5607V71.797ZM60.7319 77.099C60.1672 77.099 59.6539 76.9707 59.1919 76.714C58.7372 76.4573 58.3779 76.0943 58.1139 75.625C57.8572 75.1483 57.7289 74.5983 57.7289 73.975C57.7289 73.359 57.8609 72.8163 58.1249 72.347C58.3962 71.8703 58.7629 71.5073 59.2249 71.258C59.6869 71.0013 60.2039 70.873 60.7759 70.873C61.3479 70.873 61.8649 71.0013 62.3269 71.258C62.7889 71.5073 63.1519 71.8667 63.4159 72.336C63.6872 72.8053 63.8229 73.3517 63.8229 73.975C63.8229 74.5983 63.6835 75.1483 63.4049 75.625C63.1335 76.0943 62.7632 76.4573 62.2939 76.714C61.8245 76.9707 61.3039 77.099 60.7319 77.099ZM60.7319 76.219C61.0912 76.219 61.4285 76.1347 61.7439 75.966C62.0592 75.7973 62.3122 75.5443 62.5029 75.207C62.7009 74.8697 62.7999 74.459 62.7999 73.975C62.7999 73.491 62.7045 73.0803 62.5139 72.743C62.3232 72.4057 62.0739 72.1563 61.7659 71.995C61.4579 71.8263 61.1242 71.742 60.7649 71.742C60.3982 71.742 60.0609 71.8263 59.7529 71.995C59.4522 72.1563 59.2102 72.4057 59.0269 72.743C58.8435 73.0803 58.7519 73.491 58.7519 73.975C58.7519 74.4663 58.8399 74.8807 59.0159 75.218C59.1992 75.5553 59.4412 75.8083 59.7419 75.977C60.0425 76.1383 60.3725 76.219 60.7319 76.219ZM67.515 71.951C67.691 71.6063 67.9403 71.3387 68.263 71.148C68.593 70.9573 68.9927 70.862 69.462 70.862V71.896H69.198C68.076 71.896 67.515 72.5047 67.515 73.722V77H66.514V70.972H67.515V71.951ZM78.4341 77.099C77.9721 77.099 77.5578 77.022 77.1911 76.868C76.8245 76.7067 76.5348 76.4867 76.3221 76.208C76.1095 75.922 75.9921 75.5957 75.9701 75.229H77.0041C77.0335 75.5297 77.1728 75.7753 77.4221 75.966C77.6788 76.1567 78.0125 76.252 78.4231 76.252C78.8045 76.252 79.1051 76.1677 79.3251 75.999C79.5451 75.8303 79.6551 75.6177 79.6551 75.361C79.6551 75.097 79.5378 74.9027 79.3031 74.778C79.0685 74.646 78.7055 74.5177 78.2141 74.393C77.7668 74.2757 77.4001 74.1583 77.1141 74.041C76.8355 73.9163 76.5935 73.7367 76.3881 73.502C76.1901 73.26 76.0911 72.9447 76.0911 72.556C76.0911 72.248 76.1828 71.9657 76.3661 71.709C76.5495 71.4523 76.8098 71.2507 77.1471 71.104C77.4845 70.95 77.8695 70.873 78.3021 70.873C78.9695 70.873 79.5085 71.0417 79.9191 71.379C80.3298 71.7163 80.5498 72.1783 80.5791 72.765H79.5781C79.5561 72.4497 79.4278 72.1967 79.1931 72.006C78.9658 71.8153 78.6578 71.72 78.2691 71.72C77.9098 71.72 77.6238 71.797 77.4111 71.951C77.1985 72.105 77.0921 72.3067 77.0921 72.556C77.0921 72.754 77.1545 72.919 77.2791 73.051C77.4111 73.1757 77.5725 73.2783 77.7631 73.359C77.9611 73.4323 78.2325 73.5167 78.5771 73.612C79.0098 73.7293 79.3618 73.8467 79.6331 73.964C79.9045 74.074 80.1355 74.2427 80.3261 74.47C80.5241 74.6973 80.6268 74.9943 80.6341 75.361C80.6341 75.691 80.5425 75.988 80.3591 76.252C80.1758 76.516 79.9155 76.725 79.5781 76.879C79.2481 77.0257 78.8668 77.099 78.4341 77.099ZM84.4232 72.083C84.6212 71.7383 84.9145 71.4523 85.3032 71.225C85.6992 70.9903 86.1575 70.873 86.6782 70.873C87.2135 70.873 87.6975 71.0013 88.1302 71.258C88.5702 71.5147 88.9149 71.8777 89.1642 72.347C89.4135 72.809 89.5382 73.348 89.5382 73.964C89.5382 74.5727 89.4135 75.1153 89.1642 75.592C88.9149 76.0687 88.5702 76.439 88.1302 76.703C87.6975 76.967 87.2135 77.099 86.6782 77.099C86.1649 77.099 85.7102 76.9853 85.3142 76.758C84.9255 76.5233 84.6285 76.2337 84.4232 75.889V79.86H83.4222V70.972H84.4232V72.083ZM88.5152 73.964C88.5152 73.5093 88.4235 73.1133 88.2402 72.776C88.0569 72.4387 87.8075 72.182 87.4922 72.006C87.1842 71.83 86.8432 71.742 86.4692 71.742C86.1025 71.742 85.7615 71.8337 85.4462 72.017C85.1382 72.193 84.8889 72.4533 84.6982 72.798C84.5149 73.1353 84.4232 73.5277 84.4232 73.975C84.4232 74.4297 84.5149 74.8293 84.6982 75.174C84.8889 75.5113 85.1382 75.7717 85.4462 75.955C85.7615 76.131 86.1025 76.219 86.4692 76.219C86.8432 76.219 87.1842 76.131 87.4922 75.955C87.8075 75.7717 88.0569 75.5113 88.2402 75.174C88.4235 74.8293 88.5152 74.426 88.5152 73.964ZM91.8568 73.964C91.8568 73.348 91.9815 72.809 92.2308 72.347C92.4801 71.8777 92.8211 71.5147 93.2538 71.258C93.6938 71.0013 94.1815 70.873 94.7168 70.873C95.2448 70.873 95.7031 70.9867 96.0918 71.214C96.4805 71.4413 96.7701 71.7273 96.9608 72.072V70.972H97.9728V77H96.9608V75.878C96.7628 76.23 96.4658 76.5233 96.0698 76.758C95.6811 76.9853 95.2265 77.099 94.7058 77.099C94.1705 77.099 93.6865 76.967 93.2538 76.703C92.8211 76.439 92.4801 76.0687 92.2308 75.592C91.9815 75.1153 91.8568 74.5727 91.8568 73.964ZM96.9608 73.975C96.9608 73.5203 96.8691 73.1243 96.6858 72.787C96.5025 72.4497 96.2531 72.193 95.9378 72.017C95.6298 71.8337 95.2888 71.742 94.9148 71.742C94.5408 71.742 94.1998 71.83 93.8918 72.006C93.5838 72.182 93.3381 72.4387 93.1548 72.776C92.9715 73.1133 92.8798 73.5093 92.8798 73.964C92.8798 74.426 92.9715 74.8293 93.1548 75.174C93.3381 75.5113 93.5838 75.7717 93.8918 75.955C94.1998 76.131 94.5408 76.219 94.9148 76.219C95.2888 76.219 95.6298 76.131 95.9378 75.955C96.2531 75.7717 96.5025 75.5113 96.6858 75.174C96.8691 74.8293 96.9608 74.4297 96.9608 73.975ZM100.665 73.975C100.665 73.3517 100.79 72.809 101.039 72.347C101.289 71.8777 101.633 71.5147 102.073 71.258C102.521 71.0013 103.03 70.873 103.602 70.873C104.343 70.873 104.952 71.0527 105.428 71.412C105.912 71.7713 106.231 72.27 106.385 72.908H105.307C105.205 72.5413 105.003 72.2517 104.702 72.039C104.409 71.8263 104.042 71.72 103.602 71.72C103.03 71.72 102.568 71.918 102.216 72.314C101.864 72.7027 101.688 73.2563 101.688 73.975C101.688 74.701 101.864 75.262 102.216 75.658C102.568 76.054 103.03 76.252 103.602 76.252C104.042 76.252 104.409 76.1493 104.702 75.944C104.996 75.7387 105.197 75.4453 105.307 75.064H106.385C106.224 75.68 105.901 76.175 105.417 76.549C104.933 76.9157 104.328 77.099 103.602 77.099C103.03 77.099 102.521 76.9707 102.073 76.714C101.633 76.4573 101.289 76.0943 101.039 75.625C100.79 75.1557 100.665 74.6057 100.665 73.975ZM114.596 73.755C114.596 73.9457 114.585 74.1473 114.563 74.36H109.745C109.782 74.954 109.983 75.4197 110.35 75.757C110.724 76.087 111.175 76.252 111.703 76.252C112.136 76.252 112.495 76.153 112.781 75.955C113.074 75.7497 113.28 75.4783 113.397 75.141H114.475C114.314 75.7203 113.991 76.1933 113.507 76.56C113.023 76.9193 112.422 77.099 111.703 77.099C111.131 77.099 110.618 76.9707 110.163 76.714C109.716 76.4573 109.364 76.0943 109.107 75.625C108.85 75.1483 108.722 74.5983 108.722 73.975C108.722 73.3517 108.847 72.8053 109.096 72.336C109.345 71.8667 109.694 71.5073 110.141 71.258C110.596 71.0013 111.116 70.873 111.703 70.873C112.275 70.873 112.781 70.9977 113.221 71.247C113.661 71.4963 113.998 71.841 114.233 72.281C114.475 72.7137 114.596 73.205 114.596 73.755ZM113.562 73.546C113.562 73.1647 113.478 72.8383 113.309 72.567C113.14 72.2883 112.909 72.0793 112.616 71.94C112.33 71.7933 112.011 71.72 111.659 71.72C111.153 71.72 110.72 71.8813 110.361 72.204C110.009 72.5267 109.807 72.974 109.756 73.546H113.562ZM124.537 70.862C125.27 70.862 125.864 71.0857 126.319 71.533C126.774 71.973 127.001 72.611 127.001 73.447V77H126.011V73.59C126.011 72.9887 125.861 72.5303 125.56 72.215C125.259 71.8923 124.849 71.731 124.328 71.731C123.8 71.731 123.378 71.896 123.063 72.226C122.755 72.556 122.601 73.0363 122.601 73.667V77H121.6V70.972H122.601V71.83C122.799 71.522 123.067 71.2837 123.404 71.115C123.749 70.9463 124.126 70.862 124.537 70.862ZM135.511 73.755C135.511 73.9457 135.5 74.1473 135.478 74.36H130.66C130.697 74.954 130.898 75.4197 131.265 75.757C131.639 76.087 132.09 76.252 132.618 76.252C133.051 76.252 133.41 76.153 133.696 75.955C133.989 75.7497 134.195 75.4783 134.312 75.141H135.39C135.229 75.7203 134.906 76.1933 134.422 76.56C133.938 76.9193 133.337 77.099 132.618 77.099C132.046 77.099 131.533 76.9707 131.078 76.714C130.631 76.4573 130.279 76.0943 130.022 75.625C129.765 75.1483 129.637 74.5983 129.637 73.975C129.637 73.3517 129.762 72.8053 130.011 72.336C130.26 71.8667 130.609 71.5073 131.056 71.258C131.511 71.0013 132.031 70.873 132.618 70.873C133.19 70.873 133.696 70.9977 134.136 71.247C134.576 71.4963 134.913 71.841 135.148 72.281C135.39 72.7137 135.511 73.205 135.511 73.755ZM134.477 73.546C134.477 73.1647 134.393 72.8383 134.224 72.567C134.055 72.2883 133.824 72.0793 133.531 71.94C133.245 71.7933 132.926 71.72 132.574 71.72C132.068 71.72 131.635 71.8813 131.276 72.204C130.924 72.5267 130.722 72.974 130.671 73.546H134.477ZM146.237 70.972L144.356 77H143.322L141.87 72.215L140.418 77H139.384L137.492 70.972H138.515L139.901 76.032L141.397 70.972H142.42L143.883 76.043L145.247 70.972H146.237ZM150.74 77.099C150.278 77.099 149.863 77.022 149.497 76.868C149.13 76.7067 148.84 76.4867 148.628 76.208C148.415 75.922 148.298 75.5957 148.276 75.229H149.31C149.339 75.5297 149.478 75.7753 149.728 75.966C149.984 76.1567 150.318 76.252 150.729 76.252C151.11 76.252 151.411 76.1677 151.631 75.999C151.851 75.8303 151.961 75.6177 151.961 75.361C151.961 75.097 151.843 74.9027 151.609 74.778C151.374 74.646 151.011 74.5177 150.52 74.393C150.072 74.2757 149.706 74.1583 149.42 74.041C149.141 73.9163 148.899 73.7367 148.694 73.502C148.496 73.26 148.397 72.9447 148.397 72.556C148.397 72.248 148.488 71.9657 148.672 71.709C148.855 71.4523 149.115 71.2507 149.453 71.104C149.79 70.95 150.175 70.873 150.608 70.873C151.275 70.873 151.814 71.0417 152.225 71.379C152.635 71.7163 152.855 72.1783 152.885 72.765H151.884C151.862 72.4497 151.733 72.1967 151.499 72.006C151.271 71.8153 150.963 71.72 150.575 71.72C150.215 71.72 149.929 71.797 149.717 71.951C149.504 72.105 149.398 72.3067 149.398 72.556C149.398 72.754 149.46 72.919 149.585 73.051C149.717 73.1757 149.878 73.2783 150.069 73.359C150.267 73.4323 150.538 73.5167 150.883 73.612C151.315 73.7293 151.667 73.8467 151.939 73.964C152.21 74.074 152.441 74.2427 152.632 74.47C152.83 74.6973 152.932 74.9943 152.94 75.361C152.94 75.691 152.848 75.988 152.665 76.252C152.481 76.516 152.221 76.725 151.884 76.879C151.554 77.0257 151.172 77.099 150.74 77.099Z" fill="#3A4142"/>
<path d="M98.5568 30.0964H87.5998C87.2685 30.0964 87 30.501 87 31C87 31.499 87.2686 31.9036 87.5998 31.9036H98.5568C98.8881 31.9036 99.1567 31.499 99.1567 31C99.1567 30.5009 98.8881 30.0964 98.5568 30.0964Z" fill="#00FFD1"/>
<path d="M98.0001 25H83.9036C83.4045 25 83 25.4046 83 25.9036C83 26.4026 83.4046 26.8072 83.9036 26.8072H98.0001C98.4992 26.8072 98.9038 26.4026 98.9038 25.9036C98.9038 25.4046 98.4992 25 98.0001 25Z" fill="#00FFD1"/>
<path d="M98.4432 35H90.5086C90.2277 35 90 35.4046 90 35.9036C90 36.4026 90.2277 36.8071 90.5086 36.8071H98.4432C98.7241 36.8071 98.9519 36.4026 98.9519 35.9036C98.9519 35.4045 98.7241 35 98.4432 35Z" fill="#00FFD1"/>
</svg>
